<svg width="44" height="44" viewBox="0 0 44 44" fill="none" xmlns="http://www.w3.org/2000/svg">
<path d="M9.1665 12.8333V33C9.1665 33.4862 9.35966 33.9526 9.70348 34.2964C10.0473 34.6402 10.5136 34.8333 10.9998 34.8333H31.1665" stroke="white" stroke-width="2" stroke-linecap="round" stroke-linejoin="round"/>
<path d="M9.70361 34.2962L20.1664 23.8333" stroke="white" stroke-width="2" stroke-linecap="round" stroke-linejoin="round"/>
<path d="M34.8332 38.5C36.8582 38.5 38.4998 36.8584 38.4998 34.8333C38.4998 32.8083 36.8582 31.1667 34.8332 31.1667C32.8081 31.1667 31.1665 32.8083 31.1665 34.8333C31.1665 36.8584 32.8081 38.5 34.8332 38.5Z" stroke="white" stroke-width="2" stroke-linecap="round" stroke-linejoin="round"/>
<path d="M9.16667 12.8333C11.1917 12.8333 12.8333 11.1917 12.8333 9.16667C12.8333 7.14162 11.1917 5.5 9.16667 5.5C7.14162 5.5 5.5 7.14162 5.5 9.16667C5.5 11.1917 7.14162 12.8333 9.16667 12.8333Z" stroke="white" stroke-width="2" stroke-linecap="round" stroke-linejoin="round"/>
</svg>
