<?xml version="1.0" encoding="UTF-8"?><svg id="Ebene_1" xmlns="http://www.w3.org/2000/svg" viewBox="0 0 500 367.5"><path d="M8.61,143.82c1.53-9.35,7.92-14.39,15.72-18.64,14.06-7.66,27.85-15.8,41.8-23.68,10.85-6.12,21.78-12.09,32.63-18.22,13.94-7.87,27.76-15.97,41.78-23.71,13.94-7.7,27.76-15.61,41.4-23.82,11.31-6.8,22.58-13.69,33.95-20.41,6.77-4,14.22-5.87,22.02-6.85,10.13-1.27,19.9-.07,29.47,3.2,6,2.06,11.19,5.74,16.66,8.82,11.87,6.7,23.62,13.61,35.42,20.43,11.36,6.57,22.72,13.15,34.1,19.68,9.63,5.53,19.28,11.02,28.93,16.52,13.55,7.72,27.09,15.44,40.65,23.14,9.92,5.64,19.85,11.26,29.79,16.86,11.85,6.68,23.81,13.19,35.56,20.05,8.15,4.75,10.62,14.13,6.48,22.7-.27.56-.47,1.16-.69,1.74-.82,2.73-3,4.27-5.15,5.85-.78.41-1.55.85-2.31,1.3-5.06,2.91-10.23,5.65-15.15,8.79-9.68,5.2-19.15,10.77-28.67,16.25-12.28,7.07-24.65,13.98-36.8,21.28-10.17,5.42-20.12,11.25-30.1,17.01-21.54,12.43-43.15,24.75-64.73,37.1-10.57,6.05-21.08,12.2-31.68,18.19-16.44,9.29-33.03,9.63-49.49.34-23.24-13.12-46.38-26.41-69.58-39.6-35.99-20.47-71.95-41-107.96-61.44-11.05-6.27-22.04-12.65-33.13-18.85-3.67-2.05-6.65-4.87-8.77-8.55-2.8-4.88-4.1-9.96-2.13-15.49Z" style="fill:#2f5cc3;"/><path d="M9.99,184.02c-2.36-2.89-3.3-6.34-3.65-9.94-.61-6.29-1.2-12.6-.8-18.94.02-.37.37-.72.56-1.08,1.2-.21,1.41.78,1.66,1.52,2.03,5.99,6.41,9.86,11.68,12.86,8.83,5.03,17.62,10.13,26.41,15.21,31.79,18.38,63.62,36.7,95.41,55.09,26.75,15.48,53.56,30.85,80.27,46.39,2.96,1.72,6.36,2.31,9.32,3.99,1.09.62,2.41.95,2.79,2.39q-.62,2-2.28,1.31c2.21,2.3,2.09,2.31,2.32,5.93.16,2.52.57,5.04.42,7.56-.14,2.35.95,3.69,3.01,4.63,5.65,2.58,11.54,3.88,17.76,3.62,2.2-.13,4.43.34,6.59-.43,2.34-.2,4.64-.6,6.91-1.22,2.79-.57,5.61-1.06,8.14-2.49,2.45-.95,4.69-2.36,7.12-3.38,10.04-5.43,19.67-11.57,29.46-17.41,21.7-12.95,43.24-26.16,64.95-39.1.55-.33,1.04-.72,1.55-1.1,31.01-18.65,62.16-37.08,93.06-55.92,2.81-1.71,5.34-4.22,8.94-4.4.31.1.57.27.78.53.18,1.65-1.17,2.11-2.22,2.75-14.56,8.82-29.23,17.46-43.77,26.31-28.72,17.48-57.67,34.58-86.43,51.98-22.07,13.35-44.13,26.73-66.34,39.85-7.57,4.47-16.13,6.08-24.89,6.57-3.97.22-8.04-.96-11.89.87-7.59-.18-14.68-2-21.01-6.34-2.27-3.29-6.01-4.55-9.24-6.43-14.51-8.47-29.07-16.86-43.65-25.22-13.19-7.57-26.35-15.22-39.54-22.8-12.74-7.32-25.47-14.65-38.18-22.03-13.16-7.64-26.34-15.22-39.52-22.82-11.35-6.55-22.69-13.12-34.05-19.67-.93-.54-1.79-1.12-2.92-1.01-3.39-.55-5.56-2.95-7.86-5.16-.7-.68-.77-1.58-.9-2.47Z" style="fill:#183066;"/><path d="M233.08,291.32c-17.86-7.46-33.87-18.29-50.61-27.8-14.23-8.08-28.4-16.26-42.56-24.44-21.48-12.4-42.91-24.88-64.4-37.27-18.84-10.86-37.72-21.64-56.59-32.45-6.15-3.53-10.83-8.28-12.81-15.29-.12-3.65.15-7.2,2.5-10.24-.36,6.27.53,12.16,4.52,17.37,3.43,4.47,8.45,6.58,13.08,9.26,12.8,7.41,25.64,14.74,38.49,22.06,12.85,7.32,25.73,14.59,38.58,21.9,14.69,8.36,29.35,16.76,44.04,25.12,12.85,7.32,25.73,14.59,38.58,21.9,14.69,8.36,29.34,16.79,44.04,25.11,16.33,9.24,32.67,9.49,49.06.03,15.1-8.71,30.27-17.28,45.4-25.94,15.58-8.92,31.15-17.87,46.73-26.8,10.73-6.14,21.46-12.26,32.21-18.36.81-.46,1.76-.69,2.64-1.03.36,1.73-1.08,2.11-2.11,2.73-19.65,11.78-39.23,23.69-58.87,35.49-18.55,11.14-37.13,22.23-55.66,33.41-1.52.92-2.97,2.04-4.79,2.39-5.21,2.37-10.34,4.97-16.12,5.78-3.13.89-6.31,1.34-9.56,1.29-2.81.34-5.61.33-8.41,0-2.57-.04-5.14-.03-7.65-.71-3.34-.89-7.08-.7-9.73-3.52Z" style="fill:#294fa8;"/><path d="M19.47,233.45c-2.02-1.32-4.11-2.52-5.9-4.2-3.67-3.46-6.07-7.49-6.42-12.63-.44-6.5-1.27-12.99-.97-19.52.02-.37.37-.72.56-1.08,1.54-.13,1.54,1.2,1.83,2.08,1.43,4.38,4.35,7.54,8.07,10.08,4.76,3.57,10.15,6.1,15.23,9.13,1.28.76,2.56,1.48,3.63,2.53.99,1.63,1.34,3.36.84,5.23-1.4,1.52-2.73.49-3.99-.18-3.37-1.78-6.66-3.71-9.95-5.64-1.92-1.13-2.71-.65-2.57,1.54.01.21.03.43,0,.63-.78,5,1.19,7.9,5.77,10.52,46.41,26.54,92.66,53.37,138.99,80.06,19.27,11.1,38.48,22.29,57.77,33.34.72.41,1.38.97,2.27,1.06.91-1.15.16-2.86,1.45-3.78,3.02-.26,5.5,1.12,7.95,2.62.71,1,.87,2.19.71,3.32-.37,2.59.99,3.78,3.17,4.68,4.89,2.01,9.86,3.54,15.23,3.27,3.37-.18,6.76.41,10.1-.39,3.18-.36,6.32-.88,9.38-1.86,10-2.69,18.2-8.88,26.89-14.06,22.89-13.64,45.78-27.29,68.56-41.12,27.64-16.78,55.44-33.31,83.16-49.96,10.14-6.09,20.11-12.48,30.43-18.27,1.64-.92,2.84-2.58,4.86-2.87.33.01.62.12.89.31-.07,2.77-2.72,3.08-4.24,4.48-40.49,24.36-81.01,48.66-121.5,73.03-25.45,15.32-50.94,30.55-76.36,45.91-4.93,2.88-10.18,4.89-15.81,5.86-5.82,1.56-11.76,1.51-17.7,1.45-4.21-.25-8.39-.76-12.49-1.74-1.86-.35-3.56-1.53-5.58-1.17-2.59-.5-4.68-2.1-7.01-3.17-3.42-3.26-7.78-5.04-11.77-7.37-22.93-13.36-45.94-26.59-68.92-39.84-25.28-14.58-50.55-29.17-75.84-43.73-15.76-9.07-31.52-18.14-47.22-27.32-1.06-.62-2.08-1.5-3.48-1.24Z" style="fill:#183066;"/><path d="M247.02,317.34c.58-1.76,2.08-1.17,3.23-1.16,7.5.05,14.9-.22,22.27-2.17,7.85-2.08,14.39-6.49,21.16-10.55,23.54-14.1,47.03-28.26,70.54-42.42,23.5-14.15,46.98-28.34,70.5-42.48,15.19-9.14,30.42-18.22,45.64-27.31.73-.43,1.54-.73,1.9-1.59,2.19-2.49,4.92-4.38,7.25-6.72.43-.43,1.07-.64,1.71-.25-.04.44-.08.88-.13,1.32-.31,1.56-1.25,2.74-2.3,3.86-7.44,6.23-16.08,10.6-24.32,15.55-58.54,35.18-117.07,70.36-175.55,105.64-10.6,6.4-21.86,9.5-34.02,9.81-2.61.07-5.51.3-7.88-1.52Z" style="fill:#1e3c7f;"/><path d="M19.47,233.45c1.25-1.9,2.29-.02,3.04.41,8.65,4.87,17.22,9.9,25.82,14.87,13.17,7.61,26.36,15.2,39.53,22.81,12.9,7.45,25.8,14.91,38.7,22.35,13.18,7.6,26.36,15.19,39.54,22.8,12.9,7.45,25.79,14.91,38.69,22.36,6.31,3.64,12.63,7.28,18.96,10.9,1.28.73,2.76,1.24,2.94,3.02-9.16-5.23-18.33-10.44-27.47-15.7-11.7-6.74-23.37-13.52-35.06-20.28-11.42-6.6-22.84-13.18-34.26-19.77-13.25-7.65-26.49-15.3-39.74-22.94-12.79-7.38-25.59-14.75-38.38-22.13-10.78-6.22-21.55-12.45-32.33-18.68Z" style="fill:#193167;"/><path d="M285.2,351.13c12.47-7.51,24.93-15.03,37.4-22.53,21.33-12.84,42.65-25.68,63.99-38.5,20.61-12.39,41.24-24.75,61.86-37.12,11.48-6.89,22.96-13.8,34.44-20.7.4.43.38.87.05,1.32-21.79,13.09-43.58,26.18-65.36,39.29-21.24,12.79-42.45,25.64-63.7,38.41-18.37,11.05-36.78,22.03-55.17,33.04-4.51,2.7-9.01,5.41-13.51,8.11-.41-.44-.36-.88,0-1.31Z" style="fill:#254796;"/><path d="M16.27,208.75c-3.97-2.17-6.69-5.4-8.38-9.58-.42-1.04-.18-2.32-1.15-3.15-.21-4.35,1.02-8.31,3.25-12,.42.59.83,1.19,1.25,1.78.29,1.37.03,2.71-.1,4.07-.58,5.75.37,11.11,4.03,15.79.69.88,1.59,1.76,1.11,3.09Z" style="fill:#294fa8;"/><path d="M488.62,187.1c.61-1.2,1.12-2.48,2.46-3.1,1.79,3.13,3.6,6.25,3.31,10.06.35,2.99.39,5.92-1.48,8.52-.57.46-1.16.84-1.92.41-.2-5.38-1.22-10.65-2.37-15.89Z" style="fill:#294fa8;"/><path d="M488.63,166.84c1.87-1.73,3.75-3.46,5.62-5.19-.18,4.68.82,9.41-.6,14.03-.49,1.01-.46,2.22-1.18,3.15-.46.6-.91,1.2-1.71.43-1.33-4.01-.72-8.02-.12-12.03.07.33-.06.64-.24.92-.67,1.03-1.75,2.1-2.78,1.2-1.14-.99.7-1.63,1-2.52Z" style="fill:#515e7c;"/><path d="M492.42,202.37c.89-2.71,2.07-5.36,1.97-8.31.52.47.58,1.11.56,1.74-.24,7.88.66,15.8-.66,23.65-.08.48-.38.93-.58,1.39-.42-.26-.67-.66-.82-1.12-.19-2.83-.69-5.64-.83-8.48-.02-.32.12-.77-.05-.93-3.16-2.84-.46-5.35.41-7.96Z" style="fill:#1d3a7b;"/><path d="M251.51,358.11c6.17-.06,12.38.43,18.44-1.26.37.39.37.78,0,1.17-6.02,1.87-12.2,2.15-18.43,1.91-.55-.6-.52-1.21,0-1.82Z" style="fill:#1e3c7f;"/><path d="M269.95,358.02c0-.39,0-.78,0-1.17,5.4-1.07,10.41-3.18,15.26-5.71,0,.44,0,.88,0,1.31-4.69,2.93-9.74,4.9-15.26,5.57Z" style="fill:#21418b;"/><path d="M251.51,358.11c0,.61,0,1.21,0,1.82-4.47-.82-9.11-.68-13.4-2.44-.06-.57.3-.93.66-1.29,4.13,1.43,8.37,2.03,12.73,1.92Z" style="fill:#1b3672;"/><path d="M491.17,179.5c.83-1.27,1.65-2.55,2.48-3.82-.06,1.08.46,2.24-.5,3.17-.72,1.25-1.09,2.68-1.97,3.85,0,0,.03-.03.03-.03-3.23,2.02-5,5.91-8.96,6.98,0,0-.31,0-.31,0h-.31c-.21-.41-.22-.92.11-1.16,3.55-2.58,6.23-6.07,9.44-9Z" style="fill:#042267;"/><path d="M482.94,233.59c-.02-.44-.03-.88-.05-1.32,1.59-1.17,3.47-1.98,4.46-3.84,1.05-1.51,2.15-2.99,3.33-4.4.64-.76,1.13-1.82,2.45-1.34-1.74,5.18-5.86,8.15-10.2,10.89Z" style="fill:#204086;"/><path d="M493.14,222.7c-1.46.91-2.15,2.48-3.17,3.77-.73.92-1.31,1.88-2.62,1.97-.22,0-.43,0-.65,0-.5-1.02.26-1.62.76-2.31.48-.53.98-1.05,1.49-1.56,1.12-.84,1.51-2.19,2.26-3.28.6-.88.98-2.16,2.5-1.76,0,.44,0,.88,0,1.33-.03.67.15,1.4-.58,1.85Z" style="fill:#193167;"/><path d="M238.77,356.19c-.02.53-.18.99-.66,1.29-1.59-.07-3.02-.64-4.41-1.35.21-1.29.99-.93,1.82-.69,1.07.31,2.16.51,3.24.75Z" style="fill:#193167;"/><path d="M491.18,182.71c.26-1.48.81-2.82,1.97-3.85-.16,1.54-.51,2.98-1.97,3.85Z" style="fill:#3a4f7f;"/><path d="M244.24,12.38c9.02-1.07,16.7,3.47,24.43,7.96,13.43,7.8,26.92,15.52,40.37,23.29,12.72,7.35,25.42,14.73,38.14,22.08,14.36,8.3,28.74,16.59,43.11,24.88,13.18,7.6,26.37,15.2,39.55,22.81,14.37,8.29,28.75,16.57,43.11,24.89,2.74,1.59,5.47,3.22,8.08,5.01,6.29,4.32,6.38,13.55-.04,17.67-6.84,4.39-13.96,8.36-20.98,12.47-21.54,12.58-43.08,25.15-64.63,37.7-22.2,12.92-44.2,26.19-66.71,38.54-12.04,6.6-24.98,5.99-37.08-.72-14.78-8.2-29.32-16.85-43.95-25.32-14.18-8.21-28.33-16.45-42.51-24.65-14.37-8.3-28.77-16.54-43.14-24.84-15.74-9.09-31.45-18.23-47.19-27.32-12.9-7.45-25.83-14.86-38.74-22.32-1.82-1.05-3.66-2.17-4.95-3.88-4.65-6.17-3.42-12.2,3.89-16.83,7.23-4.58,14.73-8.72,22.13-13.03,13.61-7.92,27.22-15.84,40.84-23.74,14.08-8.17,28.17-16.31,42.25-24.48,14.71-8.54,29.44-17.07,44.11-25.69,6.04-3.55,12.53-4.9,19.92-4.48Z" style="fill:#2b58bf;"/><path d="M255.38,275.41c-6.63.71-11.97-2.6-17.37-5.74-14.78-8.56-29.57-17.11-44.35-25.67-21.35-12.37-42.68-24.76-64.05-37.1-19.73-11.39-39.49-22.7-59.23-34.07-13.71-7.89-27.39-15.83-41.09-23.74-5.39-3.12-6.83-8.98-1.54-13.16,6.16-4.87,13.06-7.73,21.02-7.23,5.83.36,10.85,3.08,15.81,5.98,14.57,8.51,29.2,16.91,43.79,25.37,14.23,8.25,28.44,16.54,42.68,24.76,13.24,7.64,26.54,15.19,39.79,22.83,11.24,6.48,22.43,13.03,33.65,19.53,11.78,6.81,23.62,13.5,35.34,20.41,5.43,3.2,11.44,5.52,16.04,10.02,3.21,3.14,3.19,7.91-.41,10.53-5.93,4.31-12.21,8.04-20.07,7.29Z" style="fill:#7392dc;"/><path d="M491.17,179.5c-1.74,4.75-6.08,7.04-9.55,10.15-5.06,1.96-9.34,5.29-13.94,8.04-27.26,16.28-54.47,32.66-81.71,49-1.98,1.19-3.82,2.63-6.05,3.36-.4.34-.83.4-1.29.13-.11-2.21,1.82-2.64,3.16-3.45,19.76-11.94,39.59-23.76,59.37-35.66,12.16-7.32,24.22-14.8,36.47-21.95,2.75-1.6,4.05-3.55,3.63-6.66-.26-1.95.98-4.78-.67-5.65-1.56-.83-3.5,1.45-5.19,2.47-34.61,20.95-69.41,41.57-104.02,62.52-27.27,16.5-54.67,32.79-81.96,49.26-1.45.88-2.88,1.79-4.55,2.21-2.43.93-5.6,1.34-6.54,3.88-1.11,3.01-.48,6.45-.26,9.69.09,1.33,1.13.87,1.93.59,1.44-.52,2.71-1.75,4.44-1.02.58.76-.02,1.1-.53,1.46-2.34,1.03-4.45,2.58-6.98,3.2-3.01,1.33-6.2,2.04-9.43,2.47-4.05.54-4.95-.27-5.08-4.29-.08-2.64-.29-5.31.13-7.91.31-1.9-.45-2.51-2.08-2.63-1.69-.13-3.38-.04-5.07-.06-.84-.12-1.88-.2-1.91-1.22-.03-1.04,1.07-1.12,1.84-1.31,1.02-.24,2.08-.27,3.12-.3.33-.05.67-.06,1-.04,1.83.35,3.67.65,5.51.04.3-.1.6-.16.91-.21,7.81-.48,14.75-3.37,21.38-7.36,36.45-21.89,72.79-43.97,109.32-65.75,24.26-14.46,48.32-29.23,72.6-43.66,5.9-3.5,12.02-6.67,17.51-10.83.64-.4,1.28-.79,1.92-1.19-.26.68-.52,1.35-.89,2.32,1.5-.32,2.03-1.57,3.43-2.64v12.99Z" style="fill:#204086;"/><path d="M284.55,287.56c7.1-3.52,13.67-7.93,20.46-11.97,19.69-11.71,39.29-23.55,58.93-35.35,13.66-8.21,27.32-16.42,40.97-24.66.43-.26.71-.75,1.07-1.13,4.3-3.64,9.47-5.85,14.27-8.65,14.3-8.34,28.67-16.55,43.09-24.68,2.64-1.49,5.06-3.49,8.12-4.18-.92,2.86-3.82,3.37-5.92,4.62-30.36,18.16-60.65,36.44-90.97,54.66-28.88,17.35-57.73,34.75-86.62,52.07-.54.33-1.11.61-1.64.97-.53.36-1.11.75-1.72.24-.69-.59-.6-1.29-.04-1.95Z" style="fill:#254796;"/><path d="M284.55,287.56c.02,2.56,1.2,1.44,2.33.76,10.41-6.25,20.83-12.48,31.24-18.72,17.39-10.42,34.78-20.83,52.15-31.27,22.35-13.43,44.69-26.87,67.04-40.31,10.13-6.09,20.28-12.17,30.4-18.27,1.34-.81,2.85-1.41,3.74-2.82,3.3-2.92,7.48-4.41,11.12-6.79,1.29-.84,2.75-1.42,4.13-2.12-3.07,3.79-7.43,5.82-11.47,8.25-32.27,19.46-64.58,38.87-96.87,58.29-31.39,18.88-62.77,37.78-94.2,56.6-5.7,3.41-11.98,5.22-18.69,5.27.14-1.98,2.58-1.64,3.17-3.16,5-1.26,9.93-2.71,14.36-5.49.4-.25,1.02-.17,1.53-.24Z" style="fill:#21418b;"/><path d="M488.62,187.1c3.06,4.95,3.84,10.27,2.55,15.91,1.08,1.39-.31,2.29-.66,3.4-1.41,2.01-2.94,3.91-4.88,5.45-8.28,4.9-16.41,10.07-24.76,14.85-1.1.63-2.19,1.28-3.39,1.73-1.25.33-2.42.85-3.41,1.71-.24.18-.5.33-.77.45-13.69,7.78-27.38,15.56-40.97,23.52-7.94,4.66-16,9.13-23.96,13.76-.82.48-1.68.91-2.65,1.02-1.45.03-2.6.81-3.78,1.51-25.59,15.16-51.23,30.23-76.8,45.41-6.1,3.62-12.1,7.41-18.34,10.78-18.94,10.22-38.18,10.52-57.61,1.41-3.63-1.7-3.6-1.78-5.97,1.07-1.72.19-3.03-.81-4.39-1.59-46.18-26.7-92.39-53.34-138.6-80-.83-.48-1.66-.94-2.29-1.69-1.99-3.71-1.94-7.91-2.84-11.89-.52-2.28-1.34-4.2-4.07-4.89-.58,2.53-.3,5.01-.08,7.48.12,1.35.53,2.72-.42,3.95-2.42.79-3.8-.71-5.13-2.32-.99-3.69-.58-7.54-1.18-11.29-.25-1.54-.59-2.86-1.94-3.78-3.75-2.54-7.49-5.09-11.66-7.73-.03,3.27,1.01,6.02,1.29,8.87.18,1.86.9,3.72.03,5.6-2.15.8-3.4-.79-4.84-1.84-1.77-3.58-1.84-7.55-2.44-11.37-.48-3.07-1.72-5.28-4.44-6.82-2.25-1.28-4.34-2.85-6.95-4.78.73,4.1,1.37,7.5,1.96,10.91.24,1.41.84,2.91-.47,4.16-5.29-3.04-10.58-6.08-15.89-9.1-1.02-.58-2-1.19-2.6-2.25-5.82-6.28-7.65-13.6-5.65-21.89.09-.38.41-.71.62-1.06,2.45,1.83,4.42,4.36,7.55,5.19,6,2.66,11.47,6.3,17.13,9.57,26.54,15.33,53.07,30.68,79.62,45.99,25.26,14.57,50.49,29.2,75.8,43.69,10.91,6.25,21.77,12.58,32.68,18.84.86.5,1.54,1.09,2.05,1.91,6.47,3.81,13.6,5.44,20.95,6.36,10.61.98,21.02.21,30.98-3.82,7.28-2.94,13.67-7.55,20.37-11.55,20.67-12.33,41.3-24.71,61.93-37.1,21.26-12.77,42.5-25.58,63.75-38.37,19.35-11.64,38.72-23.27,58.06-34.94,2.25-1.36,4.33-2.97,6.49-4.47Z" style="fill:#2f5cc3;"/><path d="M225.34,299.68c-.31,1.94,1.2,4.7-.68,5.85-1.46.89-3.35-1.25-4.94-2.16-16.04-9.19-32.02-18.49-48.03-27.76-22.77-13.18-45.53-26.37-68.31-39.53-26.07-15.07-52.05-30.32-78.34-44.99-5.43-3.03-7.99-6.22-6.86-12.24.25-1.32-.67-3.2.52-3.87,1.35-.77,2.63.8,3.88,1.52,14.38,8.28,28.76,16.54,43.13,24.84,12.72,7.35,25.4,14.75,38.12,22.1,13.27,7.66,26.57,15.27,39.85,22.91,12.45,7.17,24.9,14.35,37.34,21.55,13.17,7.62,26.24,15.41,39.54,22.8,3.84,2.13,5.97,4.44,4.79,8.99Z" style="fill:#283b68;"/><path d="M226.07,310.98c-12.23-7.04-24.48-14.06-36.7-21.12-12.77-7.38-25.49-14.84-38.26-22.22-11.77-6.8-23.59-13.52-35.37-20.3-11.69-6.73-23.35-13.5-35.03-20.25-12.86-7.43-25.73-14.85-38.61-22.26-7.49-4.31-15-8.58-22.49-12.9-.34-.2-.55-.62-.82-.94.97-1.07,1.75-.12,2.49.31,24.34,14.04,48.69,28.08,73.01,42.16,22.22,12.86,44.39,25.8,66.62,38.64,18.75,10.83,37.57,21.57,56.35,32.35,2.47,1.42,4.9,2.92,7.39,4.31.93.52,1.5,1.13,1.41,2.23Z" style="fill:#283b68;"/><path d="M233.08,291.32c3.17.88,6.34,1.76,9.51,2.64.26,2.65-.02,2.81-2.68,1.92,2.25.37,3.84,1.54,3.56,4.92-.22,2.57.29,5.26.22,7.9-.05,2.13.87,3.41,2.91,3.89,1.94.47,3.76,1.37,5.82,1.41.97.02,2.26-.1,2.25,1.51-6.87.18-13.38-1.2-19.54-4.33-1.53-.78-2.2-1.72-2.1-3.44.2-3.27-.82-6.65-.36-9.71.4-2.67-.61-3.66-2.48-5.11,1.26-.34,3.24.71,2.88-1.61Z" style="fill:#19336b;"/><path d="M259.13,296.45c-1.37,1.17-3.04.34-4.53.67-.81.18-.3.44.09.56.2.06.42.03.63.04q5.1.84,5,6.36c-.02,1.37-.02,2.73,0,4.1.05,4,.99,4.94,4.98,5.13,1.13.05,2.31-.32,3.39.31-2.22,1.06-4.58,1.3-7,1.27-3.38.76-6.64-.3-9.93-.72-.95-.12-1.54-.84-1.64-1.71-.49-4.26-.68-8.53-.49-12.98-1.05-.33-2.54-.46-3.79-1.26-.59-.38-1.45-.69-1.21-1.61.22-.82,1.05-.96,1.78-1.06,1.31-.17,2.79.32,3.83-.96,2.97,0,5.93,0,8.9-.01.53.62.52,1.25,0,1.88Z" style="fill:#1d3a7b;"/><path d="M250.22,294.58q-.67,1.59-5.56,2.2c2.79.94,5.03,1.69,7.65,2.58-1.69.28-2.43,1.16-1.99,2.54.92,2.89.58,5.85.48,8.77-.08,2.18.83,3.07,2.77,3.3,2.7.32,5.4.61,8.1.91-2.23,1.31-4.67.33-6.99.63-3.07-1.01-6.35-.98-9.42-2.12-1.82-.68-2.95-1.49-2.67-3.58.52-3.83-.79-7.64-.06-11.47.18-.94-.66-.94-1.13-1.21-1.04-.59-2.14-1.08-3.27-1.64,1.42-1.09,4.1,2.22,4.46-1.54,2.54.21,5.09.42,7.63.63Z" style="fill:#1b3673;"/><path d="M378.64,250.04c.43,0,.86,0,1.29,0-4.41,3.65-9.58,6.12-14.43,9.06-24.5,14.82-49.05,29.55-73.6,44.28-2.61,1.57-5.06,3.43-7.97,4.48.21-.42.42-.84.63-1.25,0-.5.2-.92.51-1.3,3.46-2.82,7.41-4.88,11.2-7.16,25.89-15.6,51.83-31.13,77.76-46.66,1.39-.83,2.69-2.2,4.6-1.45Z" style="fill:#1f3e83;"/><path d="M268.67,313.61c-2.43,0-4.86-.05-7.29,0-1.61.04-2.37-.61-2.25-2.24.28-3.87-.66-7.8.52-11.6.37-1.19-.3-1.24-1.04-1.38-1.1-.21-2.36.33-3.3-.68,3.14.03,6.32-.28,9.41.95-.82.62-1.19,1.45-1.17,2.56.07,3.06.1,6.12,0,9.17-.06,1.91.66,2.55,2.57,2.61,3.77.12,7.2-1.4,10.82-1.95-2.45,1.85-5.35,2.22-8.27,2.54Z" style="fill:#1f3e83;"/><path d="M259.13,296.45c0-.63,0-1.25,0-1.88,3.25.09,6.35-.93,9.54-1.28.69,2.81-2.02,2.2-3.17,3.16h0c-1.91.5-3.81.5-5.72,0-.21,0-.42,0-.64,0Z" style="fill:#1f3e83;"/><path d="M65.97,238c1.42.85,2.84,1.7,4.25,2.54,1.93,2.29,1.8,5.27,1.59,7.77-.46,5.56,2.56,7.97,7.3,9.67.23-2.8-.72-5.36-1.04-7.98-.18-1.5-.95-3.11.61-4.38,10.91,6.2,21.85,12.36,32.73,18.61,13.25,7.61,26.46,15.31,39.69,22.97,21.34,12.36,42.68,24.72,64.02,37.09,2.63,1.53,5.25,3.07,7.88,4.61,1.48,1.75.52,3.63.17,5.39-.59,3.01-1.63,6.03,2.38,7.57.37.14.48.66.52,1.09v5.7c-5.52-3.18-10.52-6.06-15.51-8.94-13.18-7.6-26.35-15.2-39.53-22.8-12.9-7.45-25.79-14.9-38.69-22.35-13.17-7.6-26.36-15.19-39.53-22.8-12.9-7.45-25.79-14.9-38.69-22.35-10.34-5.97-20.62-12.03-31.06-17.83-3-1.67-4.93-3.45-4.25-7.11.15-.82-.06-1.7.04-2.54.2-1.73-.89-4.21.65-4.96.99-.48,3.11,1.22,4.66,2.07,3.86,2.11,7.41,4.82,11.67,6.19,1.7.87,1.89,2.63,1.91,4.1.12,7.04,5.52,9.01,10.72,11.76.07-3.45-.85-6.39-1.21-9.4-.16-1.3-.92-2.68.29-3.89,1.7,0,2.68,1.62,4.25,1.91,1.97,2.52,1.77,5.61,1.68,8.43-.11,3.79,1.23,6.19,4.62,7.72,2.47,1.11,4.51,3.07,7.4,3.97.14-2.99-.15-5.8-.12-8.6.01-1.11-.48-2.33.59-3.26Z" style="fill:#193167;"/><path d="M226.07,342.95c-1.44-1.36-4.39-.86-4.87-2.78-.43-1.71.68-3.78,1.01-5.71.32-1.85.53-3.71.79-5.57,1.45-4.31,1.5-4.41,5.85-2.09,10.94,5.82,22.73,7.5,34.8,6.37,10.19-.96,19.41-5.09,28.16-10.5,13.32-8.23,26.92-16.01,40.39-23.99,13.04-7.72,26.06-15.46,39.09-23.18,4.04-2.4,8.07-4.82,12.17-7.12.6-.34,1.66-2.02,2.29.11.89.76.84,1.79.83,2.81.11.95.1,1.92.42,2.84,1.02,4.49-.39,7.46-4.64,9.83-29.95,16.73-58.77,35.33-87.57,53.94-2.76,1.78-5.72,3.2-8.7,4.6-5.12,2.87-10.64,4.59-16.34,5.81-3.33,1.03-6.71,1.58-10.2,1.25-2.62.31-5.25.31-7.87,0-2.79.32-5.54.08-8.24-.68-3.37-.8-7.19-.32-9.76-3.41-2.73-.27-5.02-1.89-7.63-2.54Z" style="fill:#b1c7fe;"/><path d="M259.76,348.67c3.45.02,6.8-.69,10.17-1.27.8.68,1.03,1.62.98,2.58-.17,3.24,1.31,2.96,3.63,2.35,4.03-1.07,7.71-2.91,11.22-5.1,4.89-3.37,10.08-6.22,15.15-9.29,38.29-23.17,76.73-46.1,115.06-69.22,22.11-13.33,44.21-26.67,66.41-39.86,2.03-.4,2.95-3.46,5.61-2.34-.43.63-.86,1.27-1.29,1.9-16.15,10.44-32.8,20.04-49.24,29.99-22.59,13.67-45.23,27.28-67.86,40.88-20.37,12.24-40.78,24.43-61.16,36.67-7.79,4.68-15.51,9.46-23.32,14.11-3.74,2.23-7.83,3.7-12.03,4.84-2.94.73-5.9,1.29-8.95,1.31-1.83.02-3.98.92-5.01-1.36-.94-2.07-1.08-4.28.61-6.19Z" style="fill:#1f3e83;"/><path d="M47.53,227.83c.88,4.95,1.75,9.9,2.63,14.85-.24.19-.49.38-.73.57-3.96-3.36-10.23-3.93-12-9.79-.78-2.59-1.07-5.46-1.61-8.2-.57-1.68-.05-3.57-1.06-5.16-.91-5.51-1.81-11.03-2.82-17.17,4.43,3.03,8.39,5.53,12.1,8.35,1.77,1.35,1.26,3.77,1.58,5.78.57,3.6,1.26,7.18,1.91,10.77Z" style="fill:#b1c6fe;"/><path d="M233.69,345.49c3.18.85,6.36,1.7,9.53,2.54.56.52,1.02,1.18.95,1.93-.33,3.8,2.25,4.68,5.16,5.5,1.24.35,3.15-.11,3.43,2-5.69.16-10.99-1.36-16.18-3.58-2.35-1-3.49-2.28-2.94-4.92.23-1.11.04-2.31.04-3.47Z" style="fill:#19336b;"/><path d="M259.76,348.67c.01,6.95.01,7,7.09,6.86,2.09-.04,4.17-.4,6.26-.61-3.03,1.36-6.22,1.93-9.53,1.91-3.33.76-6.68.32-9.97-.15-3.46-.5-4.35-4.2-2.12-8,2.75,0,5.51,0,8.26,0Z" style="fill:#44557b;"/><path d="M251.49,348.67c.01,7.86.26,8.1,8.3,8.16,1.26,0,2.53,0,3.79,0-3.53,1.39-7.21.29-10.81.63-2.08-.59-4.12-1.33-6.23-1.74-2.63-.52-3.74-1.87-3.33-4.55.16-1.02.02-2.09.02-3.13,2.76.21,5.51.42,8.27.64Z" style="fill:#364974;"/><path d="M489.87,206.17c.43-1.05.87-2.11,1.3-3.16.42-.21.84-.43,1.26-.64,1.02,2.29-1.17,3.8-1.4,5.78.48,1.16,1.91-2.64,2.05.41.17,3.66.42,7.31.63,10.96-2.2,1.35-1.96,4.6-4.45,5.73-1.59-1.56-.9-3.57-1.03-5.4-.13-1.79.08-3.59-.1-5.41-.94-.72-1.75.61-2.64.17-.56-.43-.65-1.01-.59-1.66,1.35-2.48,4.14-3.91,4.97-6.77Z" style="fill:#1f3d82;"/><path d="M485.55,214.45c1.28-.63,1.84-2.24,3.7-2.69,0,4.6,0,9.05,0,13.49-.42.43-.84.85-1.26,1.28-2.15.33-3.03,2.7-5.09,3.17-2.07-2.85-1.17-5.95-.77-9.01,1.51-1.88,1.95-4.34,3.42-6.25Z" style="fill:#214188;"/><path d="M231.25,131.78c-8.25-5.31-17.18-9.5-25.23-15.16-3.64-2.56-7.21-5.09-10.11-8.68-4.2-5.2-2.03-12.83,1.18-16.73,6-7.29,14.02-10.81,23.19-12.18,4.55-.68,9.1-1.43,13.71-1.23,9.06.38,17.96,1.84,26.6,4.59,1.31.42,2.01.38,3.04-.47,7.17-5.88,15.49-8.77,24.66-9.93,10.15-1.29,19.98-.55,29.46,3.28,6.27,2.53,11.77,6.08,14.76,12.6,1.44,3.15,1.9,6.46.82,9.57-1.02,2.95.46,2.54,2.26,2.61,9.52.36,18.8,1.96,27.32,6.42,5.13,2.68,9.77,6.18,11.81,11.92,2.44,6.87-.56,13.67-5.76,18.17-1.99,1.72-4.14,3.44-7.07,4.5,3.62,2.45,6.27,5.47,8.52,8.9,4.58,6.98,2.74,16.42-3.97,21.33-8.13,5.95-17.43,8.07-27.15,9.57-13.43,2.06-25.63-1.04-37.15-7.59-7.55-4.29-14.9-8.92-22.36-13.39-.25-.15-.61-.13-.92-.18-.18-.54.09-.93.44-1.29,1.06-.86,2.26-1.33,3.63-1.28,3.07.73,5.5,2.69,8.08,4.31,5.02,3.15,10.1,6.19,14.88,9.73,5.23,3.88,11.41,5.54,17.81,6.22,10.35,1.1,20.52.49,30.25-3.68,3.04-1.3,5.87-2.91,8.4-5.07,7.18-6.12,7.74-14.15,1.43-21.16-1.21-1.35-2.69-2.39-4-3.62-2.33-2.19-2.3-3.33.07-5.46.63-.57,1.29-1.1,1.96-1.62,7.17-5.45,10.03-14.42,3.65-22.79,5.35,8.29,2.57,18.94-6.24,23.85-.91.5-1.94,1.23-2.88.24-.8-.83-.22-1.82.21-2.66,1.65-3.21,3.17-6.37,3.26-10.16.17-6.93-3.36-11.6-8.67-15.29-2.45-1.7-5.17-2.9-8.02-3.8-.91-.29-1.84-.52-2.66-1.04-.56-.35-1.04-.81-.81-1.54.23-.75.86-.87,1.54-.74,1.97.38,3.99.46,5.93.97-5.27-1.38-10.7-1-16.05-1.38-2.88-.2-4.65-1.05-5.79-3.86-2.14-5.32-6.17-9.02-11.15-11.75-7.01-3.85-14.57-5.6-22.5-6.08-9.81-.59-19.25.52-27.9,5.64-1.76,1.04-3.43.51-5.15-.24-8.26-3.63-16.87-5.58-25.92-5.39-8.33.18-16.17,2.54-23.41,6.37-5.26,2.78-9.26,7.08-9.49,13.71-.14,4.05,1.52,7.19,4.57,9.65,1.9,1.53,4,2.77,6.26,3.74,7.91,3.38,15.32,7.71,22.72,12.05,1.09.64,2.24,1.26,2.62,2.63-.24,2.3-2.16,2.6-3.83,3.2-.35.03-.64-.08-.89-.33Z" style="fill:#fefefe;"/><path d="M231.25,131.78c.17.01.34,0,.5,0,1.92-.78,3.36.33,4.85,1.23,13.29,7.65,26.51,15.4,39.85,22.95.9,1.13,3.05,1.08,2.95,3.15-.17.2-.34.4-.52.59-2.72,1.49-5.42,3.01-8.15,4.48-4.15,2.23-8.17.85-12.17-.51-1.5-.03-2.69-.57-3.32-2.03-8.77-5.32-17.52-10.66-26.69-15.28-1.68-.37-3.34-.75-4.3-2.41-.54-.63-1.07-1.28-1.64-1.89-1.47-1.59-1.43-3.08.09-4.66,2.43-2.53,5.99-3.29,8.54-5.6Z" style="fill:#a8c1fe;"/><path d="M261.12,190.88c6.69-2.01,13.21-2.14,19.31,1.83,3.87,2.52,3.94,7.86.29,10.61-5.25,3.96-17.28,3.7-21.67.7-5.02-3.44-5.63-6.35-1.89-11.1,1.15-1,2.59-1.44,3.96-2.04Z" style="fill:#86a9fe;"/><path d="M175.9,145.25c-6.06,2.97-12.25,2.41-18.29.23-2.66-.96-4.92-3.04-5.23-6.2-.3-3.06,1.33-5.36,3.98-6.55,7.29-3.26,14.61-3.62,21.61.81,3.46,2.19,3.97,5.69,1.61,9.13-1.13,1-3.36.42-3.68,2.57Z" style="fill:#86a9fe;"/><path d="M261.12,190.88c-.68,1.92-2.1,2.39-3.96,2.04-8.6-4.96-17.16-9.98-25.82-14.84-2.53-1.42-.92-2.23.24-2.95,2.63-1.63,5.39-3.06,8.08-4.59,5.2-2.96,10.39-5.94,15.58-8.91,1.39.22,2.34,1.14,3.32,2.03-4.38,3.28-9.39,5.52-13.99,8.45-2.43,1.55-4.98,2.92-7.82,4.57,8.27,4.82,16.32,9.51,24.37,14.19Z" style="fill:#ecf0fe;"/><path d="M175.9,145.25c-2.13-1.3-.34-1.86.49-2.58,1.06-.91,2.12-.25,3.19,0,4.55,3.39,9.7,5.8,14.5,8.78,2.01,1.25,4.4,1.97,6.19,3.45,1.87,1.53,3.35,1.42,5.19.31,6.25-3.78,12.53-7.52,18.79-11.28,1.78.19,2.98,1.4,4.3,2.41-6.01,3.41-12.03,6.83-18.04,10.24-.36.2-.73.41-1.04.67-4.33,3.65-8.24,3.4-13.02.06-6.5-4.53-13.68-8.1-20.56-12.08Z" style="fill:#ecf0fe;"/><path d="M255.65,270.33c-2.61.44-5.29-.15-7.79-1.28-2.41-1.09-4.48-2.48-4.68-5.69-.21-3.36,1.71-5.17,4.21-6.36,5.7-2.72,11.56-2.59,17.29.02,2.48,1.13,4.52,3.05,4.52,5.89,0,2.82-1.93,4.75-4.46,5.97-2.82,1.36-5.81,1.71-9.08,1.45Z" style="fill:#fefefe;"/><path d="M45.63,148.28c-3.69.45-7-.48-10.11-2.57-4.31-2.91-3.12-7.77.1-9.9,5.72-3.79,14.85-3.6,20.51.4,3.6,2.55,3.65,6.66.2,9.33-3.19,2.46-6.78,3.17-10.7,2.75Z" style="fill:#fefefe;"/><path d="M378.64,250.04c-12.79,7.61-25.6,15.18-38.36,22.83-18.38,11.01-36.72,22.07-55.08,33.11-.64-.47-1.03-1.15-1.02-1.89.07-3.82-1.21-7.69.38-11.46,11.72-6.96,23.46-13.87,35.14-20.88,23.55-14.13,47.07-28.31,70.6-42.48,25.61-15.42,51.21-30.86,76.82-46.28,4.25-2.56,8.53-5.09,12.77-7.67,1.79-1.09,2.2-.57,2.44,1.41.82,7.01-.86,11.65-7.84,15.68-31.18,18.03-61.88,36.89-92.74,55.46-1.08.65-2.07,1.44-3.1,2.17Z" style="fill:#254796;"/><path d="M284.56,292.63c.87,4.42.61,8.89.64,13.35-.21.21-.42.42-.64.64-1.91.33-3.49,1.41-5.14,2.29-2.03,1.08-2.59.42-2.5-1.65.09-2.09.02-4.19.02-6.29,0-5.59,1.7-7.45,7.63-8.34Z" style="fill:#21418b;"/><path d="M259.76,296.45c1.91,0,3.81,0,5.72,0-1.91,1-3.81,1-5.72,0Z" style="fill:#21418b;"/><path d="M485.55,214.45c-.23,2.24.55,4.93-2.64,5.83-.72,1.36-1.87,2.23-3.15,3.02-19.73,12.17-39.47,24.34-59.27,36.41-3.86,2.35-4.13,2.25-6.9-1.46-.49-.81-1.14-1.54-1.19-2.56.09-2.08,1.84-2.7,3.25-3.53,12.7-7.47,25.32-15.06,38.08-22.43l-.06.04c.94-.88,2.21-1.2,3.22-1.95,8.57-5.1,17.14-10.19,25.7-15.3.89-.53,1.68-1.25,2.81-1.19.46.35.39.76.16,1.2,0,.64,0,1.28,0,1.92Z" style="fill:#b1c7fe;"/><path d="M65.97,238c1.24,4.54-.32,9.25,1.51,13.76-.3.12-.59.23-.89.35-4.33-2.56-8.68-5.1-12.99-7.69-.87-.52-1.19-1.4-1.09-2.45.4-4.11-.72-8.14-.73-12.24-.95-5.41-1.89-10.82-2.95-16.87,5.54,3.69,10.68,7.13,15.83,10.55.8.53.51,1.31.56,2,.27,4.19.5,8.39.75,12.59Z" style="fill:#b1c6fe;"/><path d="M78.68,245.62c.07,4.5,1.49,8.79,2.07,13.21.06.49.52.97-.11,1.27-.32.15-.89.09-1.2-.1-2.66-1.61-5.28-3.3-7.94-4.91-.73-.44-.57-1.09-.53-1.65.35-4.34-.81-8.58-.75-12.89-.71-4.35-.46-8.75-.63-13.12,4.76.71,6.38,2.88,7.11,9.11.37,3.08.81,6.18,1.98,9.1Z" style="fill:#b1c6fe;"/><path d="M453.72,229.73c-4.36,3.53-9.43,5.92-14.15,8.87-7.9,4.95-15.92,9.72-23.87,14.6-1.09.67-2.55,1.01-2.82,2.59-.3,1.27-1.37,1.8-2.35,2.39-7.11,4.28-14.21,8.56-21.34,12.79-1.01.6-2.06,1.63-3.43.69,0-1.06,0-2.11.01-3.17,8-4.66,16-9.33,24.02-13.97,13.22-7.64,26.46-15.24,39.67-22.87,1.37-.79,2.65-1.74,4.28-1.93Z" style="fill:#254897;"/><path d="M485.55,212.53c-.05-.4-.11-.8-.16-1.2,1.49-1.72,2.98-3.44,4.48-5.16-.23,2.94-2.28,4.64-4.32,6.36Z" style="fill:#214188;"/><path d="M456.88,227.82c-.68,1.3-1.93,1.66-3.22,1.95.65-1.35,1.87-1.77,3.22-1.95Z" style="fill:#254796;"/><path d="M414.31,257.65c.22.33.46.66.66,1,.98,1.75,1.92,2.2,3.94.95,14.2-8.85,28.51-17.52,42.78-26.26,7.08-4.34,14.14-8.7,21.21-13.05,0,3.14,0,6.28-.01,9.42-15.58,9.33-31.17,18.63-46.73,27.98-23.44,14.08-46.86,28.18-70.29,42.28-22.34,13.44-44.69,26.89-67.02,40.34-4.15,2.5-8.26,5.07-12.39,7.61-2.2-1.63-2.34-2.95-.64-6.24,14.91-7.54,28.2-17.67,42.37-26.42,13.55-8.36,27.07-16.76,40.82-24.79,5.21-3.05,10.39-6.15,15.66-9.09,1.21-.68,1.69-1.4,1.62-2.71-.08-1.48-.06-2.96-.09-4.44.32-1.41,1.53-1.98,2.59-2.63,7.14-4.36,14.25-8.77,21.47-12.99,1.21-.71,2.4-1.93,4.05-.97Z" style="fill:#3d5896;"/><path d="M285.82,341.68c.29,2.07-.64,4.27.64,6.24-4.38,2.82-8.99,5-14.19,5.98-2.15.4-2.38-.41-2.34-2.06.03-1.48,0-2.96,0-4.45,5.43-1.53,10.84-3.12,15.89-5.72Z" style="fill:#21418a;"/><path d="M414.31,257.65c-6.23,3.01-11.93,6.94-17.87,10.45-3.43,2.02-6.83,4.09-10.25,6.14-.98-.71-.45-1.69-.45-2.57,7.85-4.62,15.71-9.24,23.57-13.86,1.18-.69,2.37-1.34,3.56-2.01.48.62.96,1.24,1.44,1.86Z" style="fill:#3b5289;"/><path d="M235.61,129.3c-4.55-3.84-10.06-6.11-15.1-9.14-5.25-3.16-11.21-4.93-16.33-8.42-6.89-4.69-6.69-13.86-2.66-19.34,4.74-6.45,11.83-8.64,18.86-10.74,13.6-4.06,26.75-1.8,39.45,3.87,1.33.59,2.26.77,3.46.03,11.44-7.04,23.88-6.87,36.51-4.88,6.43,1.01,12.4,3.39,17.84,7.04,4.27,2.86,7.37,6.64,9.06,11.47.61,1.74,1.59,2.14,3.29,2.15,6.54.07,12.99.89,19.27,2.84-2.99.31-5.92-.99-9.02-.36,7.35,2.42,14.39,5.31,18.44,12.34,4.32,7.5,2.31,14.64-2.35,21.55,4.25-1.02,9.2-6.7,10.79-11.72,1.9-5.99-.68-10.55-4.54-14.78,7.68,4.84,9.87,14.2,4.64,21.55-1.82,2.55-4.02,4.72-6.58,6.29-3,1.84-1.71,3.08.12,4.33,3.05,2.08,5.36,4.75,7.02,8.02,2.84,5.59,1.15,13.15-3.66,17.24-8.38,7.13-18.33,9.69-29,10.19-9.96.47-19.85-.34-28.39-5.91-6.45-4.2-12.85-8.49-19.4-12.55-1.51-.94-3.14-1.68-4.72-2.52-.22-1.99,1.5-2.35,2.68-3.05,10.18-6.06,20.49-11.9,30.68-17.92.35-.23.73-.42,1.08-.65,2.65-1.7,2.7-2.23-.03-3.8-7.49-4.31-14.98-8.63-22.47-12.95-5.39-3.11-10.77-6.22-16.16-9.33-2.57-1.49-5.09-2.02-7.62.04-10.45,5.85-20.67,12.08-31.1,17.95-1.25.7-2.43,1.82-4.08,1.15Z" style="fill:#fafbfe;"/><path d="M235.61,129.3c10.7-6.15,21.4-12.3,32.09-18.48.92-.53,1.77-1.15,2.86-1.27,1.33-.06,2.35.52,2.61,1.81.35,1.7-1.08,2.43-2.23,3.09-7.03,4.07-14.04,8.17-21.07,12.23-3.38,1.95-6.7,4-10.11,5.9-1.12.62-2.21,1.24-3.55,1.16-1.49-.66-2.98-1.32-4.47-1.98,1.29-.82,2.57-1.64,3.86-2.47Z" style="fill:#ccdbfe;"/><path d="M316.36,137.56c-7.6,5.13-15.82,9.21-23.61,14.01-3.38,2.09-7.1,3.64-10.13,6.29-1.07.41-2.15.82-3.22,1.24-.81-1.12-2.54-1.08-3.13-2.48.15-.94.84-1.45,1.57-1.89,10.92-6.48,21.88-12.91,32.96-19.12,1.59-.89,3.22-1.06,4.78.07.61.44,1.14.99.78,1.87Z" style="fill:#ccdbfe;"/><path d="M316.36,137.56c-1.51-1.96-3.06-2.31-5.4-.94-11.51,6.76-23.12,13.35-34.7,20-4.99-1.85-9.23-5.04-13.81-7.63-8.81-4.97-17.5-10.16-26.23-15.25,9.35-5.52,18.69-11.06,28.04-16.56,2-1.18,4.08-2.22,6.07-3.42,3.06-1.83,3.04-1.86.23-4.21,1.93-2.46,4.32-2.39,6.76-1.03,6.16,3.43,12.27,6.94,18.38,10.46,7.47,4.3,14.96,8.59,22.38,12.99,3.81,2.26,3.75,2.54-.02,4.83-.53.32-1.13.52-1.7.77Z" style="fill:#d6e1fe;"/><path d="M269.3,200.5c-1.86.07-3.7-.25-3.7-2.44,0-2.64,2.26-2.64,4.15-2.65,1.82-.01,3.98.2,3.88,2.59-.12,2.58-2.51,2.28-4.32,2.5Z" style="fill:#ecf0fe;"/><path d="M165.89,141.39c-.86.1-2.17-.07-3.09-1.34-.25-.34-.71-.66-.72-1-.02-1.64,1.08-2.58,2.51-2.67,2.1-.14,4.7-.9,5.76,1.82.69,1.78-1.04,2.45-2.32,3.07-.44.21-1.04.08-2.13.13Z" style="fill:#ecf0fe;"/></svg>