<svg width="17" height="17" viewBox="0 0 17 17" fill="none" xmlns="http://www.w3.org/2000/svg">
<g clip-path="url(#clip0_196_87)">
<path d="M14.9598 4.53333L10.6744 1.65749C10.4488 1.50426 10.1838 1.41941 9.9111 1.41313C9.63845 1.40684 9.36977 1.4794 9.13734 1.62208L2.08942 5.95708C1.88395 6.08382 1.71427 6.26098 1.5965 6.47173C1.47873 6.68247 1.41677 6.91982 1.41651 7.16124V11.2837C1.41616 11.5158 1.47282 11.7444 1.5815 11.9494C1.69019 12.1544 1.84758 12.3296 2.03984 12.4596L6.32526 15.3425C6.55087 15.4957 6.81592 15.5806 7.08857 15.5869C7.36123 15.5931 7.62991 15.5206 7.86234 15.3779L14.9103 11.0429C15.1157 10.9162 15.2854 10.739 15.4032 10.5283C15.5209 10.3175 15.5829 10.0802 15.5832 9.83874V5.70916C15.5835 5.47711 15.5269 5.24852 15.4182 5.04349C15.3095 4.83847 15.1521 4.66328 14.9598 4.53333Z" stroke="white" stroke-width="1.5" stroke-linecap="round" stroke-linejoin="round"/>
<path d="M7.08333 15.5833V9.91668L1.59375 6.48126" stroke="white" stroke-width="1.5" stroke-linecap="round" stroke-linejoin="round"/>
<path d="M7.0835 9.91667L15.4206 5.05042" stroke="white" stroke-width="1.5" stroke-linecap="round" stroke-linejoin="round"/>
</g>
<defs>
<clipPath id="clip0_196_87">
<rect width="17" height="17" fill="white"/>
</clipPath>
</defs>
</svg>
