<svg width="16" height="16" viewBox="0 0 16 16" fill="none" xmlns="http://www.w3.org/2000/svg">
<path d="M5.17917 13.0472C6.53108 13.7407 8.08623 13.9286 9.56438 13.5769C11.0425 13.2252 12.3465 12.3572 13.2412 11.1292C14.136 9.90119 14.5628 8.39399 14.4446 6.87918C14.3264 5.36438 13.6711 3.94159 12.5967 2.8672C11.5223 1.79282 10.0995 1.1375 8.58472 1.01932C7.06991 0.901145 5.56271 1.32789 4.33471 2.22266C3.1067 3.11743 2.23866 4.42137 1.88699 5.89952C1.53533 7.37767 1.72317 8.93282 2.41667 10.2847L1 14.4639L5.17917 13.0472Z" stroke="white" stroke-width="1.3" stroke-linecap="round" stroke-linejoin="round"/>
<path d="M6.02246 5.25556C6.18899 4.78216 6.51769 4.38297 6.95035 4.1287C7.383 3.87442 7.89168 3.78148 8.38629 3.86632C8.88091 3.95115 9.32954 4.20831 9.65272 4.59223C9.97591 4.97615 10.1528 5.46206 10.152 5.96389C10.152 7.38056 8.02704 8.08889 8.02704 8.08889" stroke="white" stroke-width="1.3" stroke-linecap="round" stroke-linejoin="round"/>
</svg>
