<svg width="16" height="17" viewBox="0 0 16 17" fill="none" xmlns="http://www.w3.org/2000/svg">
<path d="M7.92819 1H7.59818C7.20036 1 6.81883 1.15804 6.53752 1.43934C6.25622 1.72064 6.09818 2.10218 6.09818 2.5V2.635C6.09792 2.89804 6.02848 3.15639 5.89684 3.38413C5.7652 3.61186 5.57599 3.80098 5.34818 3.9325L5.02569 4.12C4.79766 4.25165 4.53899 4.32096 4.27568 4.32096C4.01238 4.32096 3.75371 4.25165 3.52568 4.12L3.41318 4.06C3.06898 3.86145 2.66006 3.80758 2.27619 3.91023C1.89231 4.01288 1.56485 4.26365 1.36569 4.6075L1.20069 4.8925C1.00213 5.2367 0.948268 5.64562 1.05092 6.0295C1.15356 6.41338 1.40434 6.74084 1.74819 6.94L1.86069 7.015C2.08739 7.14588 2.2759 7.33382 2.40747 7.56012C2.53905 7.78643 2.60911 8.04323 2.61069 8.305V8.6875C2.61173 8.95182 2.54292 9.21171 2.41122 9.44088C2.27951 9.67005 2.08959 9.86034 1.86069 9.9925L1.74819 10.06C1.40434 10.2592 1.15356 10.5866 1.05092 10.9705C0.948268 11.3544 1.00213 11.7633 1.20069 12.1075L1.36569 12.3925C1.56485 12.7363 1.89231 12.9871 2.27619 13.0898C2.66006 13.1924 3.06898 13.1386 3.41318 12.94L3.52568 12.88C3.75371 12.7483 4.01238 12.679 4.27568 12.679C4.53899 12.679 4.79766 12.7483 5.02569 12.88L5.34818 13.0675C5.57599 13.199 5.7652 13.3881 5.89684 13.6159C6.02848 13.8436 6.09792 14.102 6.09818 14.365V14.5C6.09818 14.8978 6.25622 15.2794 6.53752 15.5607C6.81883 15.842 7.20036 16 7.59818 16H7.92819C8.32601 16 8.70754 15.842 8.98885 15.5607C9.27015 15.2794 9.42819 14.8978 9.42819 14.5V14.365C9.42846 14.102 9.49789 13.8436 9.62953 13.6159C9.76117 13.3881 9.95038 13.199 10.1782 13.0675L10.5007 12.88C10.7287 12.7483 10.9874 12.679 11.2507 12.679C11.514 12.679 11.7727 12.7483 12.0007 12.88L12.1132 12.94C12.4574 13.1386 12.8663 13.1924 13.2502 13.0898C13.6341 12.9871 13.9615 12.7363 14.1607 12.3925L14.3257 12.1C14.5242 11.7558 14.5781 11.3469 14.4755 10.963C14.3728 10.5791 14.122 10.2517 13.7782 10.0525L13.6657 9.9925C13.4368 9.86034 13.2469 9.67005 13.1152 9.44088C12.9834 9.21171 12.9146 8.95182 12.9157 8.6875V8.3125C12.9146 8.04818 12.9834 7.78829 13.1152 7.55912C13.2469 7.32995 13.4368 7.13966 13.6657 7.0075L13.7782 6.94C14.122 6.74084 14.3728 6.41338 14.4755 6.0295C14.5781 5.64562 14.5242 5.2367 14.3257 4.8925L14.1607 4.6075C13.9615 4.26365 13.6341 4.01288 13.2502 3.91023C12.8663 3.80758 12.4574 3.86145 12.1132 4.06L12.0007 4.12C11.7727 4.25165 11.514 4.32096 11.2507 4.32096C10.9874 4.32096 10.7287 4.25165 10.5007 4.12L10.1782 3.9325C9.95038 3.80098 9.76117 3.61186 9.62953 3.38413C9.49789 3.15639 9.42846 2.89804 9.42819 2.635V2.5C9.42819 2.10218 9.27015 1.72064 8.98885 1.43934C8.70754 1.15804 8.32601 1 7.92819 1Z" stroke="white" stroke-width="1.3" stroke-linecap="round" stroke-linejoin="round"/>
<path d="M7.76318 10.75C9.00582 10.75 10.0132 9.74264 10.0132 8.5C10.0132 7.25736 9.00582 6.25 7.76318 6.25C6.52054 6.25 5.51318 7.25736 5.51318 8.5C5.51318 9.74264 6.52054 10.75 7.76318 10.75Z" stroke="white" stroke-width="1.3" stroke-linecap="round" stroke-linejoin="round"/>
</svg>
